<svg width="101" height="72" viewBox="0 0 101 72" fill="none" xmlns="http://www.w3.org/2000/svg">
<rect x="88.5" y="24.7164" width="4" height="23.7278" fill="#4368A4"/>
<path fill-rule="evenodd" clip-rule="evenodd" d="M83.7101 28.7937H15.4766V49.3606H15.6264C15.5272 49.893 15.4766 50.4324 15.4766 50.9778C15.4766 60.4454 30.7512 68.1204 49.5933 68.1204C68.4355 68.1204 83.7101 60.4454 83.7101 50.9778C83.7101 50.4324 83.6595 49.893 83.5603 49.3606H83.7101V28.7937Z" fill="#9EB2D4"/>
<path d="M49.1788 0L97.8577 23.035L49.1788 46.07L0.5 23.035L49.1788 0Z" fill="#D6E5FF"/>
<path d="M89.5626 46.405C90.082 45.8914 90.918 45.8914 91.4374 46.405L94.5409 49.4733C95.0688 49.9952 95.0688 50.8478 94.5409 51.3697L91.4374 54.438C90.918 54.9515 90.082 54.9515 89.5626 54.438L86.459 51.3697C85.9312 50.8478 85.9312 49.9952 86.4591 49.4733L89.5626 46.405Z" fill="#4368A4"/>
<path d="M92.9708 58.6183C93.3724 57.7346 94.6276 57.7346 95.0292 58.6183L96.1631 61.1136C96.2513 61.3078 96.3926 61.473 96.5707 61.5902L99.0656 63.2325C99.7441 63.6791 99.7441 64.6743 99.0656 65.1209L96.5707 66.7632C96.3926 66.8804 96.2513 67.0457 96.1631 67.2398L95.0292 69.7352C94.6276 70.6189 93.3724 70.6189 92.9708 69.7352L91.8369 67.2398C91.7487 67.0457 91.6074 66.8804 91.4293 66.7632L88.9344 65.1209C88.2559 64.6743 88.2559 63.6791 88.9344 63.2325L91.4293 61.5902C91.6074 61.473 91.7487 61.3078 91.8369 61.1136L92.9708 58.6183Z" fill="#F7E76F"/>
<path d="M11.5542 5.31163C12.1454 4.01064 13.9933 4.01063 14.5845 5.31162L16.2538 8.98533C16.3837 9.27111 16.5917 9.51434 16.8539 9.68693L20.5269 12.1047C21.5258 12.7623 21.5258 14.2273 20.5269 14.8849L16.8539 17.3027C16.5917 17.4753 16.3837 17.7185 16.2538 18.0043L14.5845 21.678C13.9933 22.979 12.1454 22.979 11.5542 21.678L9.88484 18.0043C9.75498 17.7185 9.54694 17.4753 9.28474 17.3027L5.61177 14.8849C4.61285 14.2273 4.61285 12.7623 5.61177 12.1047L9.28474 9.68693C9.54694 9.51434 9.75498 9.27111 9.88484 8.98533L11.5542 5.31163Z" fill="#F7E76F"/>
</svg>
