<svg width="77" height="72" viewBox="0 0 77 72" fill="none" xmlns="http://www.w3.org/2000/svg">
<circle cx="63.0227" cy="25.0435" r="10.4348" fill="#5189AE"/>
<path fill-rule="evenodd" clip-rule="evenodd" d="M75.1514 59.4784C76.0702 57.0497 76.5875 54.307 76.5875 51.4038C76.5875 41.4558 70.5141 33.3914 63.0222 33.3914C55.5304 33.3914 49.457 41.4558 49.457 51.4038C49.457 54.307 49.9743 57.0497 50.8931 59.4784H75.1514Z" fill="#5189AE"/>
<circle cx="16.0676" cy="25.0435" r="10.4348" fill="#4368A4"/>
<path fill-rule="evenodd" clip-rule="evenodd" d="M28.1964 59.4784C29.1151 57.0497 29.6324 54.307 29.6324 51.4038C29.6324 41.4558 23.559 33.3914 16.0672 33.3914C8.57531 33.3914 2.50195 41.4558 2.50195 51.4038C2.50195 54.307 3.0192 57.0497 3.93799 59.4784H28.1964Z" fill="#4368A4"/>
<circle cx="40.0656" cy="37.5652" r="10.4348" fill="#9EB2D4"/>
<path fill-rule="evenodd" clip-rule="evenodd" d="M52.1944 72.0001C53.1132 69.5714 53.6304 66.8287 53.6304 63.9255C53.6304 53.9775 47.5571 45.9131 40.0652 45.9131C32.5734 45.9131 26.5 53.9775 26.5 63.9255C26.5 66.8287 27.0172 69.5714 27.936 72.0001H52.1944Z" fill="#9EB2D4"/>
<path d="M6.12068 57.6994C6.5377 56.7712 7.85564 56.7712 8.27266 57.6994L9.45538 60.3321C9.5464 60.5347 9.69276 60.7075 9.87764 60.8305L12.5046 62.5796C13.2057 63.0464 13.2057 64.0765 12.5046 64.5433L9.87764 66.2924C9.69276 66.4155 9.5464 66.5883 9.45538 66.7909L8.27266 69.4235C7.85564 70.3518 6.53771 70.3518 6.12068 69.4235L4.93796 66.7909C4.84694 66.5883 4.70058 66.4155 4.51571 66.2924L1.88874 64.5433C1.18761 64.0765 1.18761 63.0464 1.88874 62.5796L4.51571 60.8305C4.70058 60.7075 4.84694 60.5347 4.93796 60.3321L6.12068 57.6994Z" fill="#F7E76F"/>
<path d="M55.1656 2.39506C55.5826 1.4668 56.9006 1.4668 57.3176 2.39505L58.5003 5.02769C58.5913 5.23029 58.7377 5.40307 58.9226 5.52616L61.5495 7.27523C62.2507 7.74205 62.2507 8.77213 61.5495 9.23895L58.9226 10.988C58.7377 11.1111 58.5913 11.2839 58.5003 11.4865L57.3176 14.1191C56.9006 15.0474 55.5826 15.0474 55.1656 14.1191L53.9829 11.4865C53.8919 11.2839 53.7455 11.1111 53.5606 10.988L50.9337 9.23895C50.2325 8.77213 50.2325 7.74205 50.9337 7.27523L53.5606 5.52616C53.7455 5.40307 53.8919 5.23029 53.9829 5.02769L55.1656 2.39506Z" fill="#F7E76F"/>
</svg>
