<svg width="71" height="72" viewBox="0 0 71 72" fill="none" xmlns="http://www.w3.org/2000/svg">
<rect x="8.13281" width="47.9393" height="59.76" rx="5.25363" fill="#D6E5FF"/>
<rect x="14.7012" y="22.9846" width="35.462" height="3.28352" rx="1.64176" fill="white"/>
<rect x="14.7012" y="30.8649" width="18.3877" height="3.28352" rx="1.64176" fill="white"/>
<rect x="14.7012" y="38.7454" width="28.2382" height="3.28352" rx="1.64176" fill="white"/>
<rect x="14.7012" y="46.6258" width="35.462" height="3.28352" rx="1.64176" fill="white"/>
<rect x="19.9609" y="11.8286" width="47.9393" height="59.76" rx="5.25363" fill="#9EB2D4"/>
<rect x="26.5293" y="42.0369" width="35.462" height="3.28352" rx="1.64176" fill="white"/>
<rect x="26.5293" y="49.9174" width="16.4176" height="3.28352" rx="1.64176" fill="white"/>
<rect x="26.5293" y="57.7978" width="29.5516" height="3.28352" rx="1.64176" fill="white"/>
<path d="M36.9219 19.9973C36.9219 19.1127 37.639 18.3956 38.5236 18.3956H49.3352C50.2198 18.3956 50.9369 19.1127 50.9369 19.9973V30.4084H36.9219V19.9973Z" fill="white"/>
<path d="M43.9295 34.8131L51.0385 30.3083H36.8205L43.9295 34.8131Z" fill="white"/>
<path d="M42.9265 27.2407L46.4049 23.7622C46.487 23.6801 46.5828 23.6391 46.6922 23.6391C46.8017 23.6391 46.8975 23.6801 46.9795 23.7622C47.0616 23.8443 47.1027 23.9419 47.1027 24.0549C47.1027 24.1679 47.0616 24.2653 46.9795 24.3471L43.2138 28.1231C43.1317 28.2052 43.0359 28.2463 42.9265 28.2463C42.817 28.2463 42.7212 28.2052 42.6391 28.1231L40.8743 26.3582C40.7922 26.2762 40.7528 26.1787 40.756 26.066C40.7593 25.9533 40.8022 25.8557 40.8845 25.7734C40.9669 25.691 41.0644 25.65 41.1772 25.6502C41.2899 25.6505 41.3873 25.6916 41.4694 25.7734L42.9265 27.2407Z" fill="#9EB2D4"/>
<path d="M5.92526 59.4517C6.29588 58.6267 7.46719 58.6267 7.83782 59.4517L8.88896 61.7915C8.96985 61.9715 9.09993 62.1251 9.26423 62.2345L11.5989 63.789C12.2221 64.2038 12.2221 65.1193 11.5989 65.5342L9.26424 67.0887C9.09993 67.1981 8.96985 67.3516 8.88896 67.5317L7.83782 69.8714C7.46719 70.6964 6.29588 70.6964 5.92526 69.8714L4.87411 67.5317C4.79322 67.3516 4.66314 67.1981 4.49884 67.0887L2.16413 65.5342C1.541 65.1193 1.541 64.2038 2.16413 63.789L4.49884 62.2345C4.66314 62.1251 4.79322 61.9715 4.87411 61.7915L5.92526 59.4517Z" fill="#F7E76F"/>
<path d="M62.1658 2.43201C62.5892 1.48943 63.9275 1.48943 64.351 2.43201L65.5519 5.10527C65.6443 5.31099 65.793 5.48644 65.9807 5.61143L68.6482 7.38749C69.3602 7.86152 69.3602 8.90749 68.6482 9.38151L65.9807 11.1576C65.793 11.2826 65.6443 11.458 65.5519 11.6637L64.351 14.337C63.9275 15.2796 62.5892 15.2796 62.1658 14.337L60.9648 11.6637C60.8724 11.458 60.7238 11.2826 60.536 11.1576L57.8685 9.38151C57.1566 8.90749 57.1566 7.86152 57.8685 7.38749L60.536 5.61143C60.7238 5.48644 60.8724 5.31099 60.9648 5.10527L62.1658 2.43201Z" fill="#F7E76F"/>
</svg>
