<svg width="99" height="72" viewBox="0 0 99 72" fill="none" xmlns="http://www.w3.org/2000/svg">
<path d="M79.0183 2.84801C79.5142 1.7442 81.0813 1.7442 81.5772 2.84801L82.9836 5.97853C83.0919 6.21944 83.2659 6.4249 83.4857 6.57127L86.6095 8.65112C87.4433 9.20623 87.4433 10.4311 86.6095 10.9862L83.4857 13.0661C83.2659 13.2124 83.0919 13.4179 82.9836 13.6588L81.5772 16.7893C81.0813 17.8931 79.5142 17.8931 79.0183 16.7893L77.6119 13.6588C77.5036 13.4179 77.3296 13.2124 77.1098 13.0661L73.986 10.9862C73.1523 10.4311 73.1523 9.20623 73.986 8.65112L77.1098 6.57127C77.3296 6.4249 77.5036 6.21944 77.6119 5.97853L79.0183 2.84801Z" fill="#F7E76F"/>
<rect x="10.1914" y="1.24084" width="9.92657" height="55.8369" fill="#D6E5FF"/>
<rect x="27.5625" y="19.8531" width="9.92657" height="37.2246" fill="#5189AE"/>
<rect x="44.9336" y="37.2246" width="9.92657" height="19.8531" fill="#4368A4"/>
<rect x="62.3047" y="13.6491" width="9.92657" height="43.4287" fill="#9EB2D4"/>
<rect x="83.627" y="56.7075" width="3.18121" height="19.8531" rx="1.5906" transform="rotate(-39.6205 83.627 56.7075)" fill="#4368A4"/>
<circle cx="80.029" cy="48.0401" r="15.2418" fill="#4368A4"/>
<circle cx="80.0268" cy="48.0401" r="12.7534" fill="#D6E5FF"/>
<path d="M7.04953 52.4808C7.54542 51.377 9.1126 51.377 9.60849 52.4808L11.0149 55.6113C11.1231 55.8522 11.2972 56.0577 11.517 56.204L14.6408 58.2839C15.4745 58.839 15.4745 60.0639 14.6408 60.619L11.517 62.6989C11.2972 62.8452 11.1231 63.0507 11.0149 63.2916L9.60849 66.4221C9.1126 67.5259 7.54542 67.5259 7.04953 66.4221L5.64313 63.2916C5.5349 63.0507 5.36085 62.8452 5.14102 62.6989L2.01724 60.619C1.18351 60.0639 1.18351 58.839 2.01724 58.2839L5.14102 56.204C5.36085 56.0577 5.5349 55.8522 5.64313 55.6113L7.04953 52.4808Z" fill="#F7E76F"/>
</svg>
