<svg width="24" height="24" viewBox="0 0 24 24" fill="none" xmlns="http://www.w3.org/2000/svg">
<path fill-rule="evenodd" clip-rule="evenodd" d="M19 4.74141V8.00041C19.394 8.00041 19.7841 8.078 20.1481 8.22877C20.512 8.37953 20.8427 8.60051 21.1213 8.87909C21.3999 9.15766 21.6209 9.48838 21.7716 9.85236C21.9224 10.2163 22 10.6064 22 11.0004C22 11.3944 21.9224 11.7845 21.7716 12.1485C21.6209 12.5124 21.3999 12.8432 21.1213 13.1217C20.8427 13.4003 20.512 13.6213 20.1481 13.772C19.7841 13.9228 19.394 14.0004 19 14.0004V17.0004C19 18.6484 17.119 19.5894 15.8 18.6004L13.74 17.0544C12.6388 16.2288 11.3567 15.6776 10 15.4464V18.2904C10.0001 18.9442 9.76389 19.5759 9.3349 20.0692C8.9059 20.5625 8.31305 20.8841 7.66562 20.9747C7.01818 21.0653 6.35982 20.9188 5.81188 20.5623C5.26394 20.2057 4.86337 19.6631 4.684 19.0344L3.114 13.5384C2.54902 12.8712 2.18134 12.0596 2.05229 11.1949C1.92324 10.3302 2.03793 9.44664 2.38348 8.64354C2.72903 7.84044 3.29174 7.14965 4.00835 6.6488C4.72496 6.14796 5.56706 5.85692 6.44 5.80841L9.458 5.64041C10.9346 5.55839 12.3707 5.12688 13.648 4.38141L15.992 3.01341C17.326 2.23641 19 3.19741 19 4.74141ZM5.634 15.0784L6.607 18.4854C6.65383 18.6503 6.75874 18.7927 6.90237 18.8863C7.046 18.9799 7.21865 19.0184 7.38843 18.9946C7.55821 18.9708 7.71366 18.8865 7.82607 18.757C7.93848 18.6276 8.00026 18.4618 8 18.2904V15.2804L6.44 15.1934C6.16865 15.177 5.89909 15.1386 5.634 15.0784ZM17 4.74141L14.655 6.11041C13.2309 6.94212 11.6421 7.45205 10 7.60441V13.4234C11.787 13.6694 13.488 14.3664 14.94 15.4544L17 17.0004V4.74141ZM8 7.72441L6.55 7.80441C5.87545 7.84165 5.23936 8.13043 4.76731 8.61373C4.29527 9.09703 4.02155 9.73973 4.0002 10.415C3.97885 11.0902 4.21142 11.7489 4.652 12.2611C5.09258 12.7732 5.70915 13.1016 6.38 13.1814L6.55 13.1964L8 13.2764V7.72441ZM19 10.0004V12.0004C19.2549 12.0001 19.5 11.9025 19.6854 11.7276C19.8707 11.5526 19.9822 11.3135 19.9972 11.059C20.0121 10.8046 19.9293 10.554 19.7657 10.3586C19.6021 10.1631 19.3701 10.0375 19.117 10.0074L19 10.0004Z" fill="#3B3B62"/>
</svg>
