<svg width="24" height="24" viewBox="0 0 24 24" fill="none" xmlns="http://www.w3.org/2000/svg">
<path fill-rule="evenodd" clip-rule="evenodd" d="M19.0002 4.74104V8.00004C19.3941 8.00004 19.7842 8.07764 20.1482 8.2284C20.5122 8.37916 20.8429 8.60014 21.1215 8.87872C21.4001 9.15729 21.6211 9.48801 21.7718 9.85199C21.9226 10.216 22.0002 10.6061 22.0002 11C22.0002 11.394 21.9226 11.7841 21.7718 12.1481C21.6211 12.5121 21.4001 12.8428 21.1215 13.1214C20.8429 13.3999 20.5122 13.6209 20.1482 13.7717C19.7842 13.9224 19.3941 14 19.0002 14V17C19.0002 18.648 17.1192 19.589 15.8002 18.6L13.7402 17.054C12.639 16.2285 11.3569 15.6772 10.0002 15.446V18.29C10.0003 18.9438 9.76407 19.5755 9.33507 20.0688C8.90608 20.5621 8.31322 20.8837 7.66579 20.9743C7.01836 21.0649 6.35999 20.9185 5.81205 20.5619C5.26412 20.2053 4.86354 19.6627 4.68417 19.034L3.11417 13.538C2.54919 12.8708 2.18151 12.0593 2.05246 11.1945C1.92341 10.3298 2.03811 9.44628 2.38366 8.64318C2.72921 7.84008 3.29192 7.14928 4.00853 6.64844C4.72513 6.14759 5.56724 5.85655 6.44017 5.80804L9.45817 5.64004C10.9348 5.55802 12.3709 5.12652 13.6482 4.38104L15.9922 3.01304C17.3262 2.23604 19.0002 3.19704 19.0002 4.74104ZM5.63417 15.078L6.60717 18.485C6.654 18.65 6.75892 18.7924 6.90255 18.886C7.04618 18.9796 7.21883 19.018 7.38861 18.9943C7.55839 18.9705 7.71383 18.8861 7.82624 18.7567C7.93865 18.6272 8.00043 18.4615 8.00017 18.29V15.28L6.44017 15.193C6.16883 15.1767 5.89927 15.1382 5.63417 15.078ZM17.0002 4.74104L14.6552 6.11004C13.2311 6.94175 11.6423 7.45169 10.0002 7.60404V13.423C11.7872 13.669 13.4882 14.366 14.9402 15.454L17.0002 17V4.74104ZM8.00017 7.72404L6.55017 7.80404C5.87562 7.84129 5.23954 8.13006 4.76749 8.61336C4.29544 9.09666 4.02173 9.73937 4.00038 10.4146C3.97903 11.0899 4.2116 11.7486 4.65217 12.2607C5.09275 12.7729 5.70932 13.1013 6.38017 13.181L6.55017 13.196L8.00017 13.276V7.72404ZM19.0002 10V12C19.2551 11.9998 19.5002 11.9022 19.6855 11.7272C19.8709 11.5522 19.9824 11.3131 19.9973 11.0586C20.0123 10.8042 19.9295 10.5537 19.7659 10.3582C19.6023 10.1628 19.3703 10.0371 19.1172 10.007L19.0002 10Z" fill="white"/>
</svg>
