<svg width="40" height="41" viewBox="0 0 40 41" fill="none" xmlns="http://www.w3.org/2000/svg">
<circle cx="20" cy="20.5" r="20" fill="#3B3B62"/>
<path fill-rule="evenodd" clip-rule="evenodd" d="M25.8467 21.0203C25.8467 20.7955 25.7574 20.58 25.5985 20.4211C25.4396 20.2621 25.224 20.1729 24.9993 20.1729H14.4061C14.1813 20.1729 13.9657 20.2621 13.8068 20.4211C13.6479 20.58 13.5586 20.7955 13.5586 21.0203C13.5586 21.2451 13.6479 21.4606 13.8068 21.6196C13.9657 21.7785 14.1813 21.8678 14.4061 21.8678H24.9993C25.224 21.8678 25.4396 21.7785 25.5985 21.6196C25.7574 21.4606 25.8467 21.2451 25.8467 21.0203Z" fill="white"/>
<path fill-rule="evenodd" clip-rule="evenodd" d="M27.1181 21.0201C27.1181 20.7953 27.0288 20.5798 26.8698 20.4209L23.0563 16.6074C22.9781 16.5264 22.8846 16.4618 22.7812 16.4174C22.6778 16.373 22.5666 16.3496 22.4541 16.3487C22.3415 16.3477 22.2299 16.3691 22.1258 16.4117C22.0216 16.4544 21.927 16.5173 21.8475 16.5968C21.7679 16.6764 21.705 16.771 21.6624 16.8752C21.6197 16.9793 21.5983 17.0909 21.5993 17.2035C21.6003 17.316 21.6236 17.4272 21.668 17.5306C21.7125 17.634 21.777 17.7275 21.858 17.8057L25.0724 21.0201L21.858 24.2345C21.6989 24.3934 21.6096 24.6089 21.6095 24.8337C21.6094 25.0586 21.6986 25.2742 21.8575 25.4332C22.0164 25.5922 22.232 25.6816 22.4568 25.6817C22.6816 25.6818 22.8972 25.5925 23.0563 25.4336L26.8698 21.6201C26.9486 21.5413 27.0111 21.4477 27.0537 21.3448C27.0963 21.2418 27.1182 21.1315 27.1181 21.0201Z" fill="white"/>
</svg>
