<svg width="20" height="20" viewBox="0 0 20 20" fill="none" xmlns="http://www.w3.org/2000/svg">
<path fill-rule="evenodd" clip-rule="evenodd" d="M6.66667 3.33366H13.3333V1.66699H15V3.33366H15.8333C16.2754 3.33366 16.6993 3.50925 17.0118 3.82181C17.3244 4.13437 17.5 4.5583 17.5 5.00033V16.667C17.5 17.109 17.3244 17.5329 17.0118 17.8455C16.6993 18.1581 16.2754 18.3337 15.8333 18.3337H4.16667C3.72464 18.3337 3.30072 18.1581 2.98816 17.8455C2.67559 17.5329 2.5 17.109 2.5 16.667V5.00033C2.5 4.5583 2.67559 4.13437 2.98816 3.82181C3.30072 3.50925 3.72464 3.33366 4.16667 3.33366H5V1.66699H6.66667V3.33366ZM4.16667 6.66699V16.667H15.8333V6.66699H4.16667ZM5.83333 9.16699H7.5V10.8337H5.83333V9.16699ZM9.16667 9.16699H10.8333V10.8337H9.16667V9.16699ZM12.5 9.16699H14.1667V10.8337H12.5V9.16699ZM12.5 12.5003H14.1667V14.167H12.5V12.5003ZM9.16667 12.5003H10.8333V14.167H9.16667V12.5003ZM5.83333 12.5003H7.5V14.167H5.83333V12.5003Z" fill="#626281"/>
</svg>
