<svg width="28" height="28" viewBox="0 0 28 28" fill="none" xmlns="http://www.w3.org/2000/svg">
<path d="M10.7345 13.98L10.4598 14.2551L2.81551 21.9072C2.81542 21.9073 2.81534 21.9074 2.81525 21.9075C2.38723 22.3379 2.14697 22.9203 2.14697 23.5273C2.14697 24.1342 2.38706 24.7163 2.81479 25.1467C3.24519 25.5744 3.82735 25.8145 4.43417 25.8145C5.04105 25.8145 5.62326 25.5744 6.05369 25.1466C6.05389 25.1464 6.05409 25.1462 6.05429 25.146L13.701 17.4949L13.9759 17.2199L14.2509 17.4948L21.8978 25.1372L10.7345 13.98ZM10.7345 13.98L10.4596 13.7052M10.7345 13.98L10.4596 13.7052M10.4596 13.7052L2.80737 6.05557C2.80715 6.05535 2.80693 6.05513 2.80671 6.0549C2.37888 5.6225 2.13889 5.03877 2.13889 4.43046C2.13889 3.82232 2.37874 3.23875 2.80633 2.80639C3.23671 2.37886 3.81874 2.13889 4.42542 2.13889C5.03243 2.13889 5.61477 2.37913 6.04522 2.80711C6.04533 2.80721 6.04543 2.80732 6.04554 2.80743L13.7002 10.4621L13.9753 10.7372L14.2503 10.4619L21.8977 2.80669C22.7861 1.91827 24.2462 1.9163 25.1453 2.80686C25.573 3.23725 25.813 3.81934 25.813 4.42608C25.813 5.03311 25.5727 5.61545 25.1448 6.0459C25.1446 6.046 25.1445 6.0461 25.1444 6.04621L17.4915 13.7036L17.2166 13.9785M10.4596 13.7052L17.2166 13.9785M17.2166 13.9785L17.4916 14.2534M17.2166 13.9785L17.4916 14.2534M17.4916 14.2534L25.1366 21.8985C25.1367 21.8986 25.1368 21.8987 25.1369 21.8988C25.5649 22.3292 25.8051 22.9116 25.8051 23.5186C25.8051 24.1254 25.565 24.7076 25.1373 25.138C24.7069 25.5657 24.1247 25.8058 23.5179 25.8058C22.9111 25.8058 22.3289 25.5657 21.8984 25.1379L17.4916 14.2534Z" fill="#B4B4B4" stroke="white" stroke-width="0.777778"/>
</svg>
