<svg width="11" height="11" viewBox="0 0 11 11" fill="none" xmlns="http://www.w3.org/2000/svg">
<path d="M7.48355 6.04297H3.50555C3.56555 7.36897 3.85855 8.51997 4.26755 9.33797C4.75756 10.318 5.24855 10.543 5.49355 10.543C5.73855 10.543 6.23055 10.318 6.72055 9.33797C7.12955 8.51997 7.42355 7.36797 7.48355 6.04297ZM3.50455 5.04297C3.56455 3.71697 3.85755 2.56597 4.26655 1.74797C4.75755 0.767969 5.24855 0.542969 5.49355 0.542969C5.73855 0.542969 6.23055 0.767969 6.72055 1.74797C7.12955 2.56597 7.42255 3.71797 7.48255 5.04297H3.50455ZM2.50355 5.04297H0.518555C0.608869 4.14359 0.9413 3.28551 1.48048 2.56003C2.01966 1.83455 2.74542 1.2688 3.58055 0.922969C2.97655 1.92297 2.57155 3.38797 2.50355 5.04297ZM2.50455 6.04297H0.518555C0.608869 6.94235 0.9413 7.80042 1.48048 8.52591C2.01966 9.25139 2.74542 9.81714 3.58055 10.163C2.97655 9.16297 2.57255 7.69797 2.50455 6.04297ZM8.48455 6.04297H10.4696C10.3793 6.94224 10.047 7.80024 9.50805 8.52571C8.96905 9.25118 8.2435 9.817 7.40855 10.163C8.01155 9.16297 8.41555 7.69797 8.48355 6.04297M10.4686 5.04297H8.48355C8.41555 3.38797 8.01155 1.92297 7.40855 0.922969C8.2435 1.26894 8.96905 1.83475 9.50805 2.56023C10.047 3.2857 10.3783 4.1437 10.4686 5.04297Z" fill="#6C6C6C"/>
</svg>
