<svg width="25" height="24" viewBox="0 0 25 24" fill="none" xmlns="http://www.w3.org/2000/svg">
<path d="M12.3889 3.5C6.86592 3.5 2.38892 7.977 2.38892 13.5C2.38892 16.115 3.24542 18.718 4.88892 20.5H19.8889C21.5319 18.718 22.3889 16.115 22.3889 13.5C22.3889 7.977 17.9119 3.5 12.3889 3.5Z" stroke="white" stroke-width="2" stroke-linecap="round" stroke-linejoin="round"/>
<path d="M12.3889 17C13.4935 17 14.3889 16.1046 14.3889 15C14.3889 13.8954 13.4935 13 12.3889 13C11.2843 13 10.3889 13.8954 10.3889 15C10.3889 16.1046 11.2843 17 12.3889 17Z" stroke="white" stroke-width="2" stroke-linecap="round" stroke-linejoin="round"/>
<path d="M12.3889 10V13M12.3889 6V7M4.88892 14H5.88892M6.88892 9L7.59592 9.707M18.8889 14H19.8889M17.3889 9.707L18.0959 9" stroke="white" stroke-width="2" stroke-linecap="round" stroke-linejoin="round"/>
</svg>
