<svg width="25" height="24" viewBox="0 0 25 24" fill="none" xmlns="http://www.w3.org/2000/svg">
<path d="M12.389 3.5C6.866 3.5 2.389 7.977 2.389 13.5C2.389 16.115 3.2455 18.718 4.889 20.5H19.889C21.532 18.718 22.389 16.115 22.389 13.5C22.389 7.977 17.912 3.5 12.389 3.5Z" stroke="#3B3B62" stroke-width="2" stroke-linecap="round" stroke-linejoin="round"/>
<path d="M12.389 17C13.4936 17 14.389 16.1046 14.389 15C14.389 13.8954 13.4936 13 12.389 13C11.2844 13 10.389 13.8954 10.389 15C10.389 16.1046 11.2844 17 12.389 17Z" stroke="#3B3B62" stroke-width="2" stroke-linecap="round" stroke-linejoin="round"/>
<path d="M12.389 10V13M12.389 6V7M4.889 14H5.889M6.889 9L7.596 9.707M18.889 14H19.889M17.389 9.707L18.096 9" stroke="#3B3B62" stroke-width="2" stroke-linecap="round" stroke-linejoin="round"/>
</svg>
