<svg width="100" height="72" viewBox="0 0 100 72" fill="none" xmlns="http://www.w3.org/2000/svg">
<rect x="88" y="24.7163" width="4" height="23.7278" fill="#4368A4"/>
<path fill-rule="evenodd" clip-rule="evenodd" d="M83.2101 28.7935H14.9766V49.3604H15.1264C15.0272 49.8928 14.9766 50.4322 14.9766 50.9776C14.9766 60.4452 30.2512 68.1202 49.0933 68.1202C67.9355 68.1202 83.2101 60.4452 83.2101 50.9776C83.2101 50.4322 83.1595 49.8928 83.0603 49.3604H83.2101V28.7935Z" fill="#9EB2D4"/>
<path d="M48.6788 0L97.3577 23.035L48.6788 46.07L0 23.035L48.6788 0Z" fill="#D6E5FF"/>
<path d="M89.0626 46.4048C89.582 45.8913 90.418 45.8913 90.9374 46.4048L94.0409 49.4731C94.5688 49.995 94.5688 50.8476 94.0409 51.3695L90.9374 54.4378C90.418 54.9514 89.582 54.9514 89.0626 54.4378L85.959 51.3695C85.4312 50.8476 85.4312 49.995 85.9591 49.4731L89.0626 46.4048Z" fill="#4368A4"/>
<path d="M92.4708 58.6184C92.8724 57.7347 94.1276 57.7347 94.5292 58.6184L95.6631 61.1137C95.7513 61.3078 95.8926 61.4731 96.0707 61.5903L98.5656 63.2326C99.2441 63.6792 99.2441 64.6744 98.5656 65.121L96.0707 66.7633C95.8926 66.8805 95.7513 67.0458 95.6631 67.2399L94.5292 69.7352C94.1276 70.6189 92.8724 70.6189 92.4708 69.7352L91.3369 67.2399C91.2487 67.0458 91.1074 66.8805 90.9293 66.7633L88.4344 65.121C87.7559 64.6744 87.7559 63.6792 88.4344 63.2326L90.9293 61.5903C91.1074 61.4731 91.2487 61.3078 91.3369 61.1137L92.4708 58.6184Z" fill="#F7E76F"/>
<path d="M11.0542 5.31185C11.6454 4.01087 13.4933 4.01086 14.0845 5.31185L15.7538 8.98556C15.8837 9.27134 16.0917 9.51456 16.3539 9.68716L20.0269 12.1049C21.0258 12.7625 21.0258 14.2276 20.0269 14.8851L16.3539 17.3029C16.0917 17.4755 15.8837 17.7187 15.7538 18.0045L14.0845 21.6782C13.4933 22.9792 11.6454 22.9792 11.0542 21.6782L9.38484 18.0045C9.25498 17.7187 9.04694 17.4755 8.78474 17.3029L5.11177 14.8851C4.11285 14.2276 4.11285 12.7625 5.11177 12.1049L8.78474 9.68716C9.04694 9.51457 9.25498 9.27134 9.38484 8.98556L11.0542 5.31185Z" fill="#F7E76F"/>
</svg>
