<svg width="21" height="21" viewBox="0 0 21 21" fill="none" xmlns="http://www.w3.org/2000/svg">
<path d="M2.29688 4.92188C2.29688 4.6608 2.40059 4.41042 2.58519 4.22582C2.7698 4.04121 3.02018 3.9375 3.28125 3.9375H17.7188C17.9798 3.9375 18.2302 4.04121 18.4148 4.22582C18.5994 4.41042 18.7031 4.6608 18.7031 4.92188C18.7031 5.18295 18.5994 5.43333 18.4148 5.61793C18.2302 5.80254 17.9798 5.90625 17.7188 5.90625H3.28125C3.02018 5.90625 2.7698 5.80254 2.58519 5.61793C2.40059 5.43333 2.29688 5.18295 2.29688 4.92188ZM4.92188 10.1719C4.92188 9.9108 5.02559 9.66042 5.21019 9.47582C5.3948 9.29121 5.64518 9.1875 5.90625 9.1875H15.0938C15.3548 9.1875 15.6052 9.29121 15.7898 9.47582C15.9744 9.66042 16.0781 9.9108 16.0781 10.1719C16.0781 10.4329 15.9744 10.6833 15.7898 10.8679C15.6052 11.0525 15.3548 11.1562 15.0938 11.1562H5.90625C5.64518 11.1562 5.3948 11.0525 5.21019 10.8679C5.02559 10.6833 4.92188 10.4329 4.92188 10.1719ZM7.54688 15.4219C7.54688 15.1608 7.65059 14.9104 7.83519 14.7258C8.0198 14.5412 8.27018 14.4375 8.53125 14.4375H12.4688C12.7298 14.4375 12.9802 14.5412 13.1648 14.7258C13.3494 14.9104 13.4531 15.1608 13.4531 15.4219C13.4531 15.6829 13.3494 15.9333 13.1648 16.1179C12.9802 16.3025 12.7298 16.4062 12.4688 16.4062H8.53125C8.27018 16.4062 8.0198 16.3025 7.83519 16.1179C7.65059 15.9333 7.54688 15.6829 7.54688 15.4219Z" fill="black"/>
</svg>
