<svg width="13" height="11" viewBox="0 0 13 11" fill="none" xmlns="http://www.w3.org/2000/svg">
<path d="M11.9785 9.19922H11.5723V5.13672C11.5723 4.92123 11.4867 4.71457 11.3343 4.56219C11.1819 4.40982 10.9753 4.32422 10.7598 4.32422H7.91602V1.07422C7.91602 0.85873 7.83041 0.652068 7.67804 0.499694C7.52567 0.347321 7.319 0.261719 7.10352 0.261719H2.22852C2.01303 0.261719 1.80636 0.347321 1.65399 0.499694C1.50162 0.652068 1.41602 0.85873 1.41602 1.07422V9.19922H1.00977C0.902021 9.19922 0.79869 9.24202 0.722503 9.31821C0.646317 9.39439 0.603516 9.49772 0.603516 9.60547C0.603516 9.71321 0.646317 9.81654 0.722503 9.89273C0.79869 9.96892 0.902021 10.0117 1.00977 10.0117H11.9785C12.0863 10.0117 12.1896 9.96892 12.2658 9.89273C12.342 9.81654 12.3848 9.71321 12.3848 9.60547C12.3848 9.49772 12.342 9.39439 12.2658 9.31821C12.1896 9.24202 12.0863 9.19922 11.9785 9.19922ZM5.88477 9.19922H3.44727V6.76172H5.88477V9.19922ZM5.88477 3.91797H5.07227V4.73047C5.07227 4.83821 5.02946 4.94154 4.95328 5.01773C4.87709 5.09392 4.77376 5.13672 4.66602 5.13672C4.55827 5.13672 4.45494 5.09392 4.37875 5.01773C4.30257 4.94154 4.25977 4.83821 4.25977 4.73047V3.91797H3.44727C3.33952 3.91797 3.23619 3.87517 3.16 3.79898C3.08382 3.72279 3.04102 3.61946 3.04102 3.51172C3.04102 3.40397 3.08382 3.30064 3.16 3.22446C3.23619 3.14827 3.33952 3.10547 3.44727 3.10547H4.25977V2.29297C4.25977 2.18522 4.30257 2.08189 4.37875 2.00571C4.45494 1.92952 4.55827 1.88672 4.66602 1.88672C4.77376 1.88672 4.87709 1.92952 4.95328 2.00571C5.02946 2.08189 5.07227 2.18522 5.07227 2.29297V3.10547H5.88477C5.99251 3.10547 6.09584 3.14827 6.17203 3.22446C6.24821 3.30064 6.29102 3.40397 6.29102 3.51172C6.29102 3.61946 6.24821 3.72279 6.17203 3.79898C6.09584 3.87517 5.99251 3.91797 5.88477 3.91797ZM10.7598 9.19922H7.91602L11.0869 9.31821L10.7598 5.13672V9.19922Z" fill="#6C6C6C"/>
</svg>
