<svg width="81" height="81" viewBox="0 0 81 81" fill="none" xmlns="http://www.w3.org/2000/svg">
<g id="ic_success">
<path id="circle" fill-rule="evenodd" clip-rule="evenodd" d="M40.4997 67.1666C55.2273 67.1666 67.1663 55.2275 67.1663 40.4999C67.1663 25.7723 55.2273 13.8333 40.4997 13.8333C25.7721 13.8333 13.833 25.7723 13.833 40.4999C13.833 55.2275 25.7721 67.1666 40.4997 67.1666Z" fill="#3B3B62"/>
<path id="check" fill-rule="evenodd" clip-rule="evenodd" d="M47.8974 31.7511C49.0475 30.3136 51.1451 30.0805 52.5826 31.2306C54.0202 32.3806 54.2533 34.4782 53.1032 35.9158L39.7699 52.5824C38.5288 54.1338 36.2148 54.262 34.81 52.8571L28.1433 46.1905C26.8416 44.8887 26.8416 42.7782 28.1433 41.4764C29.4451 40.1747 31.5556 40.1747 32.8573 41.4764L36.8906 45.5097L47.8974 31.7511Z" fill="white"/>
</g>
</svg>
