<svg width="20" height="20" viewBox="0 0 20 20" fill="none" xmlns="http://www.w3.org/2000/svg">
<path d="M17.0104 3H3.98956C2.98261 3 2.1665 3.81056 2.1665 4.81028V13.0861C2.1665 14.0856 2.98261 14.8967 3.98956 14.8967H5.91123V18L8.79734 14.8967H17.0104C18.0176 14.8967 18.8334 14.0856 18.8334 13.0861V4.81028C18.8332 3.81056 18.0173 3 17.0104 3ZM6.05178 10.1122C5.40428 10.1122 4.87984 9.59139 4.87984 8.94833C4.87984 8.30556 5.40428 7.78472 6.05178 7.78472C6.69928 7.78472 7.22373 8.30556 7.22373 8.94833C7.22373 9.59111 6.69928 10.1122 6.05178 10.1122ZM10.4998 10.1122C9.85289 10.1122 9.32789 9.59139 9.32789 8.94833C9.32789 8.30556 9.85289 7.78472 10.4998 7.78472C11.1468 7.78472 11.6718 8.30556 11.6718 8.94833C11.6718 9.59111 11.1468 10.1122 10.4998 10.1122ZM14.9479 10.1122C14.3004 10.1122 13.7759 9.59139 13.7759 8.94833C13.7759 8.30556 14.3004 7.78472 14.9479 7.78472C15.5948 7.78472 16.1198 8.30556 16.1198 8.94833C16.1196 9.59139 15.5948 10.1122 14.9479 10.1122Z" fill="#626281"/>
</svg>
