<svg width="8" height="12" viewBox="0 0 8 12" fill="none" xmlns="http://www.w3.org/2000/svg">
<path d="M3.99697 5.725C3.6323 5.725 3.28256 5.58013 3.0247 5.32227C2.76684 5.06441 2.62197 4.71467 2.62197 4.35C2.62197 3.98533 2.76684 3.63559 3.0247 3.37773C3.28256 3.11987 3.6323 2.975 3.99697 2.975C4.36165 2.975 4.71138 3.11987 4.96924 3.37773C5.22711 3.63559 5.37197 3.98533 5.37197 4.35C5.37197 4.53057 5.33641 4.70937 5.26731 4.87619C5.19821 5.04301 5.09693 5.19459 4.96924 5.32227C4.84156 5.44995 4.68999 5.55123 4.52316 5.62033C4.35634 5.68944 4.17754 5.725 3.99697 5.725ZM3.99697 0.5C2.97589 0.5 1.99663 0.905624 1.27461 1.62764C0.552596 2.34965 0.146973 3.32892 0.146973 4.35C0.146973 7.2375 3.99697 11.5 3.99697 11.5C3.99697 11.5 7.84697 7.2375 7.84697 4.35C7.84697 3.32892 7.44135 2.34965 6.71933 1.62764C5.99732 0.905624 5.01806 0.5 3.99697 0.5Z" fill="#6C6C6C"/>
</svg>
