<svg width="11" height="15" viewBox="0 0 11 15" fill="none" xmlns="http://www.w3.org/2000/svg">
<path d="M5.8957 6.8708C5.41616 6.8708 4.95627 6.6803 4.61718 6.34122C4.27809 6.00213 4.0876 5.54223 4.0876 5.0627C4.0876 4.58316 4.27809 4.12326 4.61718 3.78417C4.95627 3.44509 5.41616 3.25459 5.8957 3.25459C6.37524 3.25459 6.83514 3.44509 7.17423 3.78417C7.51331 4.12326 7.70381 4.58316 7.70381 5.0627C7.70381 5.30014 7.65704 5.53526 7.56618 5.75463C7.47531 5.974 7.34213 6.17332 7.17423 6.34122C7.00633 6.50912 6.807 6.6423 6.58764 6.73317C6.36827 6.82403 6.13315 6.8708 5.8957 6.8708ZM5.8957 0C4.55299 0 3.26528 0.53339 2.31584 1.48283C1.3664 2.43227 0.833008 3.71999 0.833008 5.0627C0.833008 8.85972 5.8957 14.4648 5.8957 14.4648C5.8957 14.4648 10.9584 8.85972 10.9584 5.0627C10.9584 3.71999 10.425 2.43227 9.47557 1.48283C8.52613 0.53339 7.23841 0 5.8957 0Z" fill="#6C6C6C"/>
</svg>
