<svg width="77" height="72" viewBox="0 0 77 72" fill="none" xmlns="http://www.w3.org/2000/svg">
<circle cx="62.6084" cy="25.0437" r="10.4348" fill="#5189AE"/>
<path fill-rule="evenodd" clip-rule="evenodd" d="M74.7369 59.4786C75.6557 57.0499 76.1729 54.3072 76.1729 51.404C76.1729 41.456 70.0996 33.3916 62.6077 33.3916C55.1158 33.3916 49.0425 41.456 49.0425 51.404C49.0425 54.3072 49.5597 57.0499 50.4785 59.4786H74.7369Z" fill="#5189AE"/>
<circle cx="15.653" cy="25.0437" r="10.4348" fill="#4368A4"/>
<path fill-rule="evenodd" clip-rule="evenodd" d="M27.7818 59.4786C28.7006 57.0499 29.2178 54.3072 29.2178 51.404C29.2178 41.456 23.1445 33.3916 15.6526 33.3916C8.16076 33.3916 2.0874 41.456 2.0874 51.404C2.0874 54.3072 2.60465 57.0499 3.52344 59.4786H27.7818Z" fill="#4368A4"/>
<circle cx="39.6518" cy="37.5652" r="10.4348" fill="#9EB2D4"/>
<path fill-rule="evenodd" clip-rule="evenodd" d="M51.7811 72.0001C52.6999 69.5714 53.2171 66.8287 53.2171 63.9255C53.2171 53.9775 47.1437 45.9131 39.6519 45.9131C32.16 45.9131 26.0867 53.9775 26.0867 63.9255C26.0867 66.8287 26.6039 69.5714 27.5227 72.0001H51.7811Z" fill="#9EB2D4"/>
<path d="M5.70662 57.6993C6.12364 56.771 7.44157 56.771 7.8586 57.6993L9.04132 60.3319C9.13234 60.5345 9.2787 60.7073 9.46357 60.8304L12.0905 62.5794C12.7917 63.0463 12.7917 64.0763 12.0905 64.5431L9.46357 66.2922C9.2787 66.4153 9.13234 66.5881 9.04132 66.7907L7.8586 69.4233C7.44157 70.3516 6.12364 70.3516 5.70662 69.4233L4.5239 66.7907C4.43288 66.5881 4.28652 66.4153 4.10164 66.2922L1.47468 64.5431C0.773546 64.0763 0.773545 63.0463 1.47468 62.5794L4.10164 60.8304C4.28652 60.7073 4.43288 60.5345 4.5239 60.3319L5.70662 57.6993Z" fill="#F7E76F"/>
<path d="M54.7508 2.39506C55.1678 1.4668 56.4858 1.4668 56.9028 2.39505L58.0855 5.02769C58.1765 5.23029 58.3229 5.40307 58.5078 5.52616L61.1347 7.27523C61.8359 7.74205 61.8359 8.77213 61.1347 9.23895L58.5078 10.988C58.3229 11.1111 58.1765 11.2839 58.0855 11.4865L56.9028 14.1191C56.4858 15.0474 55.1678 15.0474 54.7508 14.1191L53.5681 11.4865C53.4771 11.2839 53.3307 11.1111 53.1458 10.988L50.5189 9.23895C49.8177 8.77213 49.8177 7.74205 50.5189 7.27523L53.1458 5.52616C53.3307 5.40307 53.4771 5.23029 53.5681 5.02769L54.7508 2.39506Z" fill="#F7E76F"/>
</svg>
