<svg width="20" height="20" viewBox="0 0 20 20" fill="none" xmlns="http://www.w3.org/2000/svg">
<path d="M16.6665 1.66699H3.33317C2.40817 1.66699 1.6665 2.40866 1.6665 3.33366V12.5003C1.6665 13.4253 2.40817 14.167 3.33317 14.167H6.6665V18.3337L9.99984 16.667L13.3332 18.3337V14.167H16.6665C17.5915 14.167 18.3332 13.4253 18.3332 12.5003V3.33366C18.3332 2.40866 17.5915 1.66699 16.6665 1.66699ZM16.6665 12.5003H3.33317V10.8337H16.6665V12.5003ZM16.6665 8.33366H3.33317V4.16699C3.33317 3.70866 3.70817 3.33366 4.1665 3.33366H15.8332C16.2915 3.33366 16.6665 3.70866 16.6665 4.16699V8.33366Z" fill="#626281"/>
</svg>
