<svg width="16" height="15" viewBox="0 0 16 15" fill="none" xmlns="http://www.w3.org/2000/svg">
<path d="M11.2966 9.75531L10.9174 10.1328C10.9174 10.1328 10.0149 11.0295 7.5524 8.58114C5.0899 6.13281 5.9924 5.23614 5.9924 5.23614L6.23073 4.99781C6.8199 4.41281 6.87573 3.47281 6.36157 2.78614L5.31157 1.38364C4.6749 0.533642 3.44573 0.421142 2.71657 1.14614L1.40823 2.44614C1.0474 2.80614 0.805733 3.27114 0.8349 3.78781C0.9099 5.11031 1.50823 7.95448 4.8449 11.2728C8.38407 14.7911 11.7049 14.9311 13.0624 14.8045C13.4924 14.7645 13.8657 14.5461 14.1666 14.2461L15.3499 13.0695C16.1499 12.2753 15.9249 10.9128 14.9016 10.357L13.3099 9.49114C12.6382 9.12698 11.8216 9.23364 11.2966 9.75531Z" fill="#626281"/>
</svg>
