<svg width="70" height="72" viewBox="0 0 70 72" fill="none" xmlns="http://www.w3.org/2000/svg">
<rect x="7.27856" width="47.9393" height="59.76" rx="5.25363" fill="#D6E5FF"/>
<rect x="13.8468" y="22.9844" width="35.462" height="3.28352" rx="1.64176" fill="white"/>
<rect x="13.8467" y="30.8647" width="18.3877" height="3.28352" rx="1.64176" fill="white"/>
<rect x="13.8467" y="38.7451" width="28.2382" height="3.28352" rx="1.64176" fill="white"/>
<rect x="13.8467" y="46.6255" width="35.462" height="3.28352" rx="1.64176" fill="white"/>
<rect x="19.108" y="11.8286" width="47.9393" height="59.76" rx="5.25363" fill="#9EB2D4"/>
<rect x="25.6759" y="42.0371" width="35.462" height="3.28352" rx="1.64176" fill="white"/>
<rect x="25.6759" y="49.9175" width="16.4176" height="3.28352" rx="1.64176" fill="white"/>
<rect x="25.6759" y="57.7979" width="29.5516" height="3.28352" rx="1.64176" fill="white"/>
<path d="M36.069 19.9972C36.069 19.1126 36.7861 18.3955 37.6707 18.3955H48.4823C49.3669 18.3955 50.084 19.1126 50.084 19.9972V30.4084H36.069V19.9972Z" fill="white"/>
<path d="M43.0765 34.813L50.1855 30.3082H35.9674L43.0765 34.813Z" fill="white"/>
<path d="M42.0732 27.2408L45.5517 23.7623C45.6337 23.6802 45.7295 23.6392 45.839 23.6392C45.9484 23.6392 46.0442 23.6802 46.1263 23.7623C46.2084 23.8444 46.2494 23.9419 46.2494 24.0549C46.2494 24.1679 46.2084 24.2654 46.1263 24.3472L42.3605 28.1232C42.2784 28.2053 42.1826 28.2463 42.0732 28.2463C41.9637 28.2463 41.868 28.2053 41.7859 28.1232L40.021 26.3583C39.9389 26.2762 39.8995 26.1788 39.9028 26.0661C39.9061 25.9534 39.9489 25.8558 40.0312 25.7734C40.1136 25.6911 40.2112 25.65 40.3239 25.6503C40.4366 25.6506 40.534 25.6916 40.6161 25.7734L42.0732 27.2408Z" fill="#9EB2D4"/>
<path d="M5.07174 59.4518C5.44237 58.6269 6.61367 58.6269 6.9843 59.4518L8.03544 61.7916C8.11633 61.9716 8.24642 62.1252 8.41072 62.2346L10.7454 63.7891C11.3686 64.204 11.3686 65.1194 10.7454 65.5343L8.41072 67.0888C8.24642 67.1982 8.11633 67.3518 8.03544 67.5318L6.9843 69.8716C6.61367 70.6966 5.44237 70.6966 5.07174 69.8716L4.0206 67.5318C3.93971 67.3518 3.80963 67.1982 3.64532 67.0888L1.31062 65.5343C0.687487 65.1194 0.687486 64.204 1.31061 63.7891L3.64532 62.2346C3.80963 62.1252 3.93971 61.9716 4.0206 61.7916L5.07174 59.4518Z" fill="#F7E76F"/>
<path d="M61.3127 2.43201C61.7362 1.48943 63.0745 1.48943 63.4979 2.43201L64.6989 5.10527C64.7913 5.31099 64.9399 5.48644 65.1277 5.61143L67.7952 7.38749C68.5071 7.86152 68.5071 8.90749 67.7952 9.38151L65.1277 11.1576C64.9399 11.2826 64.7913 11.458 64.6989 11.6637L63.4979 14.337C63.0745 15.2796 61.7362 15.2796 61.3127 14.337L60.1118 11.6637C60.0193 11.458 59.8707 11.2826 59.683 11.1576L57.0155 9.38151C56.3035 8.90749 56.3035 7.86152 57.0155 7.38749L59.683 5.61143C59.8707 5.48644 60.0193 5.31099 60.1118 5.10527L61.3127 2.43201Z" fill="#F7E76F"/>
</svg>
