<svg width="58" height="58" viewBox="0 0 58 58" fill="none" xmlns="http://www.w3.org/2000/svg">
<g id="fluent:question-24-filled">
<rect width="58" height="58" rx="10" fill="#44ACD5"/>
<path id="Vector" d="M30.864 26.5081L30.864 26.5081L30.8623 26.5093L30.8398 26.5248C29.9966 27.106 28.8844 27.8725 28.0187 28.9435L28.0186 28.9436C26.9796 30.23 26.35 31.8529 26.35 34V34.9565C26.35 35.5296 26.5761 36.0796 26.9791 36.4854C27.3822 36.8913 27.9292 37.1196 28.5 37.1196C29.0708 37.1196 29.6178 36.8913 30.0209 36.4854C30.4239 36.0796 30.65 35.5296 30.65 34.9565V34C30.65 32.8002 30.9699 32.152 31.3545 31.672C31.8156 31.105 32.4394 30.6705 33.4188 29.9931L33.4204 29.992L33.5193 29.9224C33.5196 29.9222 33.5199 29.9221 33.5202 29.9219C34.4622 29.2717 35.7057 28.3972 36.6588 27.0535C37.6676 25.6436 38.25 23.8733 38.25 21.5652C38.25 18.9626 37.2232 16.4663 35.3949 14.6254C33.5665 12.7845 31.0864 11.75 28.5 11.75C25.9136 11.75 23.4335 12.7845 21.6051 14.6254C19.7768 16.4663 18.75 18.9626 18.75 21.5652C18.75 22.1383 18.9761 22.6883 19.3791 23.0941C19.7822 23.5 20.3292 23.7283 20.9 23.7283C21.4708 23.7283 22.0178 23.5 22.4209 23.0941C22.8239 22.6883 23.05 22.1383 23.05 21.5652C23.05 18.5298 25.4895 16.0761 28.5 16.0761C31.5105 16.0761 33.95 18.5298 33.95 21.5652C33.95 23.0801 33.5849 23.9426 33.1641 24.5366C32.6948 25.1949 32.0398 25.6952 31.0832 26.3597L30.864 26.5081ZM28.5 45.25C29.1967 45.25 29.8646 44.9713 30.3568 44.4758C30.8489 43.9803 31.125 43.3087 31.125 42.6087C31.125 41.9087 30.8489 41.2371 30.3568 40.7416C29.8646 40.2461 29.1967 39.9674 28.5 39.9674C27.8033 39.9674 27.1354 40.2461 26.6432 40.7416C26.1511 41.2371 25.875 41.9087 25.875 42.6087C25.875 43.3087 26.1511 43.9803 26.6432 44.4758C27.1354 44.9713 27.8033 45.25 28.5 45.25Z" fill="white" stroke="white" stroke-width="0.5"/>
</g>
</svg>
