<svg width="99" height="72" viewBox="0 0 99 72" fill="none" xmlns="http://www.w3.org/2000/svg">
<path d="M78.7536 2.84801C79.2495 1.7442 80.8167 1.7442 81.3126 2.84801L82.719 5.97853C82.8272 6.21944 83.0013 6.4249 83.2211 6.57127L86.3449 8.65112C87.1786 9.20623 87.1786 10.4311 86.3449 10.9862L83.2211 13.0661C83.0013 13.2124 82.8272 13.4179 82.719 13.6588L81.3126 16.7893C80.8167 17.8931 79.2495 17.8931 78.7536 16.7893L77.3472 13.6588C77.239 13.4179 77.065 13.2124 76.8451 13.0661L73.7213 10.9862C72.8876 10.4311 72.8876 9.20623 73.7213 8.65112L76.8451 6.57127C77.065 6.4249 77.239 6.21944 77.3472 5.97853L78.7536 2.84801Z" fill="#F7E76F"/>
<rect x="9.92676" y="1.24072" width="9.92657" height="55.8369" fill="#D6E5FF"/>
<rect x="27.298" y="19.853" width="9.92657" height="37.2246" fill="#5189AE"/>
<rect x="44.6694" y="37.2246" width="9.92657" height="19.8531" fill="#4368A4"/>
<rect x="62.0409" y="13.6489" width="9.92657" height="43.4287" fill="#9EB2D4"/>
<rect x="83.3627" y="56.7075" width="3.18121" height="19.8531" rx="1.5906" transform="rotate(-39.6205 83.3627 56.7075)" fill="#4368A4"/>
<circle cx="79.7649" cy="48.0402" r="15.2418" fill="#4368A4"/>
<circle cx="79.7619" cy="48.04" r="12.7534" fill="#D6E5FF"/>
<path d="M6.78586 52.4808C7.28175 51.377 8.84892 51.377 9.34481 52.4808L10.7512 55.6113C10.8594 55.8523 11.0335 56.0577 11.2533 56.2041L14.3771 58.2839C15.2108 58.839 15.2108 60.0639 14.3771 60.619L11.2533 62.6989C11.0335 62.8453 10.8594 63.0507 10.7512 63.2916L9.34481 66.4221C8.84892 67.526 7.28175 67.526 6.78586 66.4221L5.37946 63.2916C5.27123 63.0507 5.09718 62.8453 4.87735 62.6989L1.75357 60.619C0.919839 60.0639 0.919838 58.839 1.75357 58.2839L4.87735 56.2041C5.09718 56.0577 5.27123 55.8523 5.37946 55.6113L6.78586 52.4808Z" fill="#F7E76F"/>
</svg>
