<svg width="20" height="20" viewBox="0 0 20 20" fill="none" xmlns="http://www.w3.org/2000/svg">
<path d="M3.33317 18.3337C2.87484 18.3337 2.48262 18.1706 2.1565 17.8445C1.83039 17.5184 1.66706 17.1259 1.6665 16.667V6.66699C1.6665 6.20866 1.82984 5.81644 2.1565 5.49033C2.48317 5.16421 2.87539 5.00088 3.33317 5.00033H6.6665V3.33366C6.6665 2.87533 6.82984 2.4831 7.1565 2.15699C7.48317 1.83088 7.87539 1.66755 8.33317 1.66699H11.6665C12.1248 1.66699 12.5173 1.83033 12.844 2.15699C13.1707 2.48366 13.3337 2.87588 13.3332 3.33366V5.00033H16.6665C17.1248 5.00033 17.5173 5.16366 17.844 5.49033C18.1707 5.81699 18.3337 6.20922 18.3332 6.66699V16.667C18.3332 17.1253 18.1701 17.5178 17.844 17.8445C17.5179 18.1712 17.1254 18.3342 16.6665 18.3337H3.33317ZM8.33317 5.00033H11.6665V3.33366H8.33317V5.00033ZM9.1665 12.5003V15.0003H10.8332V12.5003H13.3332V10.8337H10.8332V8.33366H9.1665V10.8337H6.6665V12.5003H9.1665Z" fill="#626281"/>
</svg>
