<svg width="6" height="24" viewBox="0 0 6 24" fill="none" xmlns="http://www.w3.org/2000/svg">
<path d="M0.200195 21.2305C0.200281 20.5546 0.491164 19.9031 1.01465 19.4199C1.53875 18.9361 2.25246 18.6611 3 18.6611C3.74754 18.6611 4.46125 18.9361 4.98535 19.4199C5.50884 19.9031 5.79972 20.5546 5.7998 21.2305C5.7998 21.9065 5.50891 22.5587 4.98535 23.042C4.46127 23.5257 3.74745 23.7998 3 23.7998C2.25255 23.7998 1.53873 23.5257 1.01465 23.042C0.491087 22.5587 0.200195 21.9065 0.200195 21.2305ZM0.200195 12C0.200195 11.324 0.491087 10.6718 1.01465 10.1885C1.53872 9.70489 2.25262 9.43066 3 9.43066C3.74738 9.43066 4.46128 9.70489 4.98535 10.1885C5.50891 10.6718 5.7998 11.324 5.7998 12C5.7998 12.676 5.50891 13.3282 4.98535 13.8115C4.46128 14.2951 3.74738 14.5693 3 14.5693C2.25262 14.5693 1.53872 14.2951 1.01465 13.8115C0.491087 13.3282 0.200195 12.676 0.200195 12ZM0.200195 2.76953C0.200195 2.09353 0.491087 1.44129 1.01465 0.958008C1.53873 0.474333 2.25255 0.200195 3 0.200195C3.74745 0.200195 4.46127 0.474333 4.98535 0.958008C5.50891 1.44129 5.7998 2.09353 5.7998 2.76953C5.79972 3.44543 5.50884 4.09686 4.98535 4.58008C4.46125 5.06386 3.74754 5.33887 3 5.33887C2.25246 5.33887 1.53875 5.06386 1.01465 4.58008C0.491164 4.09686 0.200281 3.44543 0.200195 2.76953Z" fill="#909090" stroke="white" stroke-width="0.4"/>
</svg>
