<svg width="80" height="81" viewBox="0 0 80 81" fill="none" xmlns="http://www.w3.org/2000/svg">
<g id="ic_warning">
<path id="Vector" d="M14.9002 70.5598H65.1003C70.2336 70.5598 73.4336 64.9932 70.8669 60.5598L45.7669 17.1932C43.2002 12.7598 36.8002 12.7598 34.2336 17.1932L9.13357 60.5598C6.56691 64.9932 9.76691 70.5598 14.9002 70.5598ZM40.0002 47.2265C38.1669 47.2265 36.6669 45.7265 36.6669 43.8932V37.2265C36.6669 35.3932 38.1669 33.8932 40.0002 33.8932C41.8336 33.8932 43.3336 35.3932 43.3336 37.2265V43.8932C43.3336 45.7265 41.8336 47.2265 40.0002 47.2265ZM43.3336 60.5598H36.6669V53.8932H43.3336V60.5598Z" fill="#FFBC44"/>
</g>
</svg>
