<svg width="12" height="12" viewBox="0 0 12 12" fill="none" xmlns="http://www.w3.org/2000/svg">
<path d="M10.0176 0.648438C10.3808 0.285224 10.9807 0.282923 11.3506 0.647461V0.648438C11.5263 0.825158 11.625 1.06431 11.625 1.31348C11.6249 1.56221 11.5267 1.80095 11.3516 1.97754L7.59473 5.73535L7.33008 6.00098L7.59473 6.26562L11.3467 10.0166V10.0176C11.5224 10.1943 11.6211 10.4334 11.6211 10.6826C11.6211 10.9314 11.5228 11.1701 11.3477 11.3467C11.1709 11.5222 10.9317 11.6211 10.6826 11.6211C10.4335 11.621 10.1943 11.5223 10.0176 11.3467H10.0186L6.26465 7.5957L6 7.33105L5.73438 7.59668L1.98242 11.3506C1.8057 11.5263 1.56662 11.625 1.31738 11.625C1.09918 11.625 0.888322 11.5498 0.720703 11.4131L0.652344 11.3506C0.477302 11.174 0.378906 10.9352 0.378906 10.6865C0.378971 10.4376 0.476901 10.1981 0.652344 10.0215L0.65332 10.0225L4.4043 6.2666L4.66992 6.00195L4.4043 5.73633L0.647461 1.98145C0.472737 1.80392 0.375013 1.56457 0.375 1.31543C0.375 1.06629 0.472758 0.826942 0.647461 0.649414C0.824101 0.473729 1.06336 0.375128 1.3125 0.375C1.5306 0.375 1.7416 0.45031 1.90918 0.586914L1.97852 0.649414L6 4.6709L6.26465 4.40527L10.0176 0.648438Z" fill="white" stroke="#3BB966" stroke-width="0.75"/>
</svg>
